<?xml version="1.0" encoding="UTF-8" standalone="no"?>
<!DOCTYPE svg PUBLIC "-//W3C//DTD SVG 1.1//EN"
 "http://www.w3.org/Graphics/SVG/1.1/DTD/svg11.dtd">
<!-- Generated by graphviz version 2.38.0 (20140413.2041)
 -->
<!-- Title: %3 Pages: 1 -->
<svg width="206pt" height="476pt"
 viewBox="0.00 0.00 205.97 476.00" xmlns="http://www.w3.org/2000/svg" xmlns:xlink="http://www.w3.org/1999/xlink">
<g id="graph0" class="graph" transform="scale(1 1) rotate(0) translate(4 472)">
<title>%3</title>
<polygon fill="white" stroke="none" points="-4,4 -4,-472 201.968,-472 201.968,4 -4,4"/>
<!-- 0 -->
<g id="node1" class="node"><title>0</title>
<ellipse fill="cyan" stroke="black" cx="44.9841" cy="-18" rx="40.6248" ry="18"/>
<text text-anchor="middle" x="44.9841" y="-13.8" font-family="Times,serif" font-size="14.00">0:(4,4,1)</text>
</g>
<!-- 1 -->
<g id="node2" class="node"><title>1</title>
<ellipse fill="cyan" stroke="black" cx="44.9841" cy="-90" rx="40.6248" ry="18"/>
<text text-anchor="middle" x="44.9841" y="-85.8" font-family="Times,serif" font-size="14.00">1:(2,3,1)</text>
</g>
<!-- 1&#45;&gt;0 -->
<g id="edge1" class="edge"><title>1&#45;&gt;0</title>
<path fill="none" stroke="black" d="M44.9841,-71.6966C44.9841,-63.9827 44.9841,-54.7125 44.9841,-46.1124"/>
<polygon fill="black" stroke="black" points="48.4842,-46.1043 44.9841,-36.1043 41.4842,-46.1044 48.4842,-46.1043"/>
</g>
<!-- 2 -->
<g id="node3" class="node"><title>2</title>
<ellipse fill="cyan" stroke="black" cx="44.9841" cy="-162" rx="44.9682" ry="18"/>
<text text-anchor="middle" x="44.9841" y="-157.8" font-family="Times,serif" font-size="14.00">2:(6,10,4)</text>
</g>
<!-- 2&#45;&gt;1 -->
<g id="edge2" class="edge"><title>2&#45;&gt;1</title>
<path fill="none" stroke="black" d="M44.9841,-143.697C44.9841,-135.983 44.9841,-126.712 44.9841,-118.112"/>
<polygon fill="black" stroke="black" points="48.4842,-118.104 44.9841,-108.104 41.4842,-118.104 48.4842,-118.104"/>
</g>
<!-- 3 -->
<g id="node4" class="node"><title>3</title>
<ellipse fill="cyan" stroke="black" cx="152.984" cy="-18" rx="40.6248" ry="18"/>
<text text-anchor="middle" x="152.984" y="-13.8" font-family="Times,serif" font-size="14.00">3:(4,4,1)</text>
</g>
<!-- 4 -->
<g id="node5" class="node"><title>4</title>
<ellipse fill="cyan" stroke="black" cx="152.984" cy="-90" rx="40.6248" ry="18"/>
<text text-anchor="middle" x="152.984" y="-85.8" font-family="Times,serif" font-size="14.00">4:(2,3,1)</text>
</g>
<!-- 4&#45;&gt;3 -->
<g id="edge3" class="edge"><title>4&#45;&gt;3</title>
<path fill="none" stroke="black" d="M152.984,-71.6966C152.984,-63.9827 152.984,-54.7125 152.984,-46.1124"/>
<polygon fill="black" stroke="black" points="156.484,-46.1043 152.984,-36.1043 149.484,-46.1044 156.484,-46.1043"/>
</g>
<!-- 5 -->
<g id="node6" class="node"><title>5</title>
<ellipse fill="cyan" stroke="black" cx="152.984" cy="-162" rx="44.9682" ry="18"/>
<text text-anchor="middle" x="152.984" y="-157.8" font-family="Times,serif" font-size="14.00">5:(6,10,4)</text>
</g>
<!-- 5&#45;&gt;4 -->
<g id="edge4" class="edge"><title>5&#45;&gt;4</title>
<path fill="none" stroke="black" d="M152.984,-143.697C152.984,-135.983 152.984,-126.712 152.984,-118.112"/>
<polygon fill="black" stroke="black" points="156.484,-118.104 152.984,-108.104 149.484,-118.104 156.484,-118.104"/>
</g>
<!-- 6 -->
<g id="node7" class="node"><title>6</title>
<ellipse fill="cyan" stroke="black" cx="98.9841" cy="-234" rx="40.6248" ry="18"/>
<text text-anchor="middle" x="98.9841" y="-229.8" font-family="Times,serif" font-size="14.00">6:(0,2,1)</text>
</g>
<!-- 6&#45;&gt;2 -->
<g id="edge5" class="edge"><title>6&#45;&gt;2</title>
<path fill="none" stroke="black" d="M86.4597,-216.765C79.8087,-208.143 71.494,-197.365 64.059,-187.727"/>
<polygon fill="black" stroke="black" points="66.6949,-185.413 57.8156,-179.633 61.1524,-189.689 66.6949,-185.413"/>
</g>
<!-- 6&#45;&gt;5 -->
<g id="edge6" class="edge"><title>6&#45;&gt;5</title>
<path fill="none" stroke="black" d="M111.509,-216.765C118.159,-208.143 126.474,-197.365 133.909,-187.727"/>
<polygon fill="black" stroke="black" points="136.816,-189.689 140.153,-179.633 131.273,-185.413 136.816,-189.689"/>
</g>
<!-- 7 -->
<g id="node8" class="node"><title>7</title>
<ellipse fill="cyan" stroke="black" cx="46.9841" cy="-306" rx="40.6248" ry="18"/>
<text text-anchor="middle" x="46.9841" y="-301.8" font-family="Times,serif" font-size="14.00">7:(4,8,4)</text>
</g>
<!-- 7&#45;&gt;6 -->
<g id="edge7" class="edge"><title>7&#45;&gt;6</title>
<path fill="none" stroke="black" d="M59.0446,-288.765C65.4493,-280.143 73.4561,-269.365 80.6157,-259.727"/>
<polygon fill="black" stroke="black" points="83.4742,-261.748 86.6279,-251.633 77.855,-257.574 83.4742,-261.748"/>
</g>
<!-- 8 -->
<g id="node9" class="node"><title>8</title>
<ellipse fill="cyan" stroke="black" cx="46.9841" cy="-378" rx="40.6248" ry="18"/>
<text text-anchor="middle" x="46.9841" y="-373.8" font-family="Times,serif" font-size="14.00">8:(1,2,1)</text>
</g>
<!-- 8&#45;&gt;7 -->
<g id="edge8" class="edge"><title>8&#45;&gt;7</title>
<path fill="none" stroke="black" d="M46.9841,-359.697C46.9841,-351.983 46.9841,-342.712 46.9841,-334.112"/>
<polygon fill="black" stroke="black" points="50.4842,-334.104 46.9841,-324.104 43.4842,-334.104 50.4842,-334.104"/>
</g>
<!-- 9 -->
<g id="node10" class="node"><title>9</title>
<ellipse fill="cyan" stroke="black" cx="46.9841" cy="-450" rx="40.6248" ry="18"/>
<text text-anchor="middle" x="46.9841" y="-445.8" font-family="Times,serif" font-size="14.00">9:(1,2,1)</text>
</g>
<!-- 9&#45;&gt;8 -->
<g id="edge9" class="edge"><title>9&#45;&gt;8</title>
<path fill="none" stroke="black" d="M46.9841,-431.697C46.9841,-423.983 46.9841,-414.712 46.9841,-406.112"/>
<polygon fill="black" stroke="black" points="50.4842,-406.104 46.9841,-396.104 43.4842,-406.104 50.4842,-406.104"/>
</g>
<!-- 10 -->
<g id="node11" class="node"><title>10</title>
<ellipse fill="cyan" stroke="black" cx="150.984" cy="-306" rx="44.9682" ry="18"/>
<text text-anchor="middle" x="150.984" y="-301.8" font-family="Times,serif" font-size="14.00">10:(4,8,4)</text>
</g>
<!-- 10&#45;&gt;6 -->
<g id="edge10" class="edge"><title>10&#45;&gt;6</title>
<path fill="none" stroke="black" d="M138.661,-288.411C132.314,-279.868 124.448,-269.278 117.398,-259.787"/>
<polygon fill="black" stroke="black" points="119.992,-257.41 111.219,-251.47 114.373,-261.585 119.992,-257.41"/>
</g>
<!-- 11 -->
<g id="node12" class="node"><title>11</title>
<ellipse fill="cyan" stroke="black" cx="150.984" cy="-378" rx="44.8211" ry="18"/>
<text text-anchor="middle" x="150.984" y="-373.8" font-family="Times,serif" font-size="14.00">11:(1,2,1)</text>
</g>
<!-- 11&#45;&gt;10 -->
<g id="edge11" class="edge"><title>11&#45;&gt;10</title>
<path fill="none" stroke="black" d="M150.984,-359.697C150.984,-351.983 150.984,-342.712 150.984,-334.112"/>
<polygon fill="black" stroke="black" points="154.484,-334.104 150.984,-324.104 147.484,-334.104 154.484,-334.104"/>
</g>
<!-- 12 -->
<g id="node13" class="node"><title>12</title>
<ellipse fill="cyan" stroke="black" cx="150.984" cy="-450" rx="44.9682" ry="18"/>
<text text-anchor="middle" x="150.984" y="-445.8" font-family="Times,serif" font-size="14.00">12:(1,2,1)</text>
</g>
<!-- 12&#45;&gt;11 -->
<g id="edge12" class="edge"><title>12&#45;&gt;11</title>
<path fill="none" stroke="black" d="M150.984,-431.697C150.984,-423.983 150.984,-414.712 150.984,-406.112"/>
<polygon fill="black" stroke="black" points="154.484,-406.104 150.984,-396.104 147.484,-406.104 154.484,-406.104"/>
</g>
</g>
</svg>
