<?xml version="1.0" encoding="UTF-8" standalone="no"?>
<!DOCTYPE svg PUBLIC "-//W3C//DTD SVG 1.1//EN"
 "http://www.w3.org/Graphics/SVG/1.1/DTD/svg11.dtd">
<!-- Generated by graphviz version 2.38.0 (20140413.2041)
 -->
<!-- Title: %3 Pages: 1 -->
<svg width="162pt" height="476pt"
 viewBox="0.00 0.00 161.86 476.00" xmlns="http://www.w3.org/2000/svg" xmlns:xlink="http://www.w3.org/1999/xlink">
<g id="graph0" class="graph" transform="scale(1 1) rotate(0) translate(4 472)">
<title>%3</title>
<polygon fill="white" stroke="none" points="-4,4 -4,-472 157.86,-472 157.86,4 -4,4"/>
<!-- 0 -->
<g id="node1" class="node"><title>0</title>
<ellipse fill="cyan" stroke="black" cx="33.9298" cy="-18" rx="33.8597" ry="18"/>
<text text-anchor="middle" x="33.9298" y="-13.8" font-family="Times,serif" font-size="14.00">0:(1,0)</text>
</g>
<!-- 1 -->
<g id="node2" class="node"><title>1</title>
<ellipse fill="none" stroke="black" cx="36.9298" cy="-90" rx="27" ry="18"/>
<text text-anchor="middle" x="36.9298" y="-85.8" font-family="Times,serif" font-size="14.00">1</text>
</g>
<!-- 1&#45;&gt;0 -->
<g id="edge1" class="edge"><title>1&#45;&gt;0</title>
<path fill="none" stroke="black" d="M36.1882,-71.6966C35.8576,-63.9827 35.4603,-54.7125 35.0917,-46.1124"/>
<polygon fill="black" stroke="black" points="38.5879,-45.9453 34.6628,-36.1043 31.5943,-46.2451 38.5879,-45.9453"/>
</g>
<!-- 2 -->
<g id="node3" class="node"><title>2</title>
<ellipse fill="none" stroke="black" cx="43.9298" cy="-162" rx="27" ry="18"/>
<text text-anchor="middle" x="43.9298" y="-157.8" font-family="Times,serif" font-size="14.00">2</text>
</g>
<!-- 2&#45;&gt;1 -->
<g id="edge2" class="edge"><title>2&#45;&gt;1</title>
<path fill="none" stroke="black" d="M42.1994,-143.697C41.428,-135.983 40.501,-126.712 39.641,-118.112"/>
<polygon fill="black" stroke="black" points="43.118,-117.706 38.6402,-108.104 36.1527,-118.403 43.118,-117.706"/>
</g>
<!-- 3 -->
<g id="node4" class="node"><title>3</title>
<ellipse fill="cyan" stroke="black" cx="119.93" cy="-18" rx="33.8597" ry="18"/>
<text text-anchor="middle" x="119.93" y="-13.8" font-family="Times,serif" font-size="14.00">3:(1,0)</text>
</g>
<!-- 4 -->
<g id="node5" class="node"><title>4</title>
<ellipse fill="none" stroke="black" cx="115.93" cy="-90" rx="27" ry="18"/>
<text text-anchor="middle" x="115.93" y="-85.8" font-family="Times,serif" font-size="14.00">4</text>
</g>
<!-- 4&#45;&gt;3 -->
<g id="edge3" class="edge"><title>4&#45;&gt;3</title>
<path fill="none" stroke="black" d="M116.919,-71.6966C117.359,-63.9827 117.889,-54.7125 118.38,-46.1124"/>
<polygon fill="black" stroke="black" points="121.876,-46.2878 118.952,-36.1043 114.887,-45.8883 121.876,-46.2878"/>
</g>
<!-- 5 -->
<g id="node6" class="node"><title>5</title>
<ellipse fill="none" stroke="black" cx="115.93" cy="-162" rx="27" ry="18"/>
<text text-anchor="middle" x="115.93" y="-157.8" font-family="Times,serif" font-size="14.00">5</text>
</g>
<!-- 5&#45;&gt;4 -->
<g id="edge4" class="edge"><title>5&#45;&gt;4</title>
<path fill="none" stroke="black" d="M115.93,-143.697C115.93,-135.983 115.93,-126.712 115.93,-118.112"/>
<polygon fill="black" stroke="black" points="119.43,-118.104 115.93,-108.104 112.43,-118.104 119.43,-118.104"/>
</g>
<!-- 6 -->
<g id="node7" class="node"><title>6</title>
<ellipse fill="cyan" stroke="black" cx="79.9298" cy="-234" rx="33.8597" ry="18"/>
<text text-anchor="middle" x="79.9298" y="-229.8" font-family="Times,serif" font-size="14.00">6:(0,1)</text>
</g>
<!-- 6&#45;&gt;2 -->
<g id="edge5" class="edge"><title>6&#45;&gt;2</title>
<path fill="none" stroke="black" d="M71.3983,-216.411C67.0943,-208.042 61.7805,-197.71 56.9771,-188.37"/>
<polygon fill="black" stroke="black" points="60.0861,-186.762 52.4,-179.47 53.8611,-189.964 60.0861,-186.762"/>
</g>
<!-- 6&#45;&gt;5 -->
<g id="edge6" class="edge"><title>6&#45;&gt;5</title>
<path fill="none" stroke="black" d="M88.4613,-216.411C92.7653,-208.042 98.079,-197.71 102.882,-188.37"/>
<polygon fill="black" stroke="black" points="105.998,-189.964 107.46,-179.47 99.7735,-186.762 105.998,-189.964"/>
</g>
<!-- 7 -->
<g id="node8" class="node"><title>7</title>
<ellipse fill="none" stroke="black" cx="43.9298" cy="-306" rx="27" ry="18"/>
<text text-anchor="middle" x="43.9298" y="-301.8" font-family="Times,serif" font-size="14.00">7</text>
</g>
<!-- 7&#45;&gt;6 -->
<g id="edge7" class="edge"><title>7&#45;&gt;6</title>
<path fill="none" stroke="black" d="M52.2794,-288.765C56.579,-280.404 61.9216,-270.016 66.761,-260.606"/>
<polygon fill="black" stroke="black" points="69.9144,-262.127 71.3755,-251.633 63.6894,-258.926 69.9144,-262.127"/>
</g>
<!-- 8 -->
<g id="node9" class="node"><title>8</title>
<ellipse fill="none" stroke="black" cx="43.9298" cy="-378" rx="27" ry="18"/>
<text text-anchor="middle" x="43.9298" y="-373.8" font-family="Times,serif" font-size="14.00">8</text>
</g>
<!-- 8&#45;&gt;7 -->
<g id="edge8" class="edge"><title>8&#45;&gt;7</title>
<path fill="none" stroke="black" d="M43.9298,-359.697C43.9298,-351.983 43.9298,-342.712 43.9298,-334.112"/>
<polygon fill="black" stroke="black" points="47.4299,-334.104 43.9298,-324.104 40.4299,-334.104 47.4299,-334.104"/>
</g>
<!-- 9 -->
<g id="node10" class="node"><title>9</title>
<ellipse fill="none" stroke="black" cx="43.9298" cy="-450" rx="27" ry="18"/>
<text text-anchor="middle" x="43.9298" y="-445.8" font-family="Times,serif" font-size="14.00">9</text>
</g>
<!-- 9&#45;&gt;8 -->
<g id="edge9" class="edge"><title>9&#45;&gt;8</title>
<path fill="none" stroke="black" d="M43.9298,-431.697C43.9298,-423.983 43.9298,-414.712 43.9298,-406.112"/>
<polygon fill="black" stroke="black" points="47.4299,-406.104 43.9298,-396.104 40.4299,-406.104 47.4299,-406.104"/>
</g>
<!-- 10 -->
<g id="node11" class="node"><title>10</title>
<ellipse fill="none" stroke="black" cx="115.93" cy="-306" rx="27" ry="18"/>
<text text-anchor="middle" x="115.93" y="-301.8" font-family="Times,serif" font-size="14.00">10</text>
</g>
<!-- 10&#45;&gt;6 -->
<g id="edge10" class="edge"><title>10&#45;&gt;6</title>
<path fill="none" stroke="black" d="M107.58,-288.765C103.281,-280.404 97.938,-270.016 93.0985,-260.606"/>
<polygon fill="black" stroke="black" points="96.1701,-258.926 88.4841,-251.633 89.9451,-262.127 96.1701,-258.926"/>
</g>
<!-- 11 -->
<g id="node12" class="node"><title>11</title>
<ellipse fill="none" stroke="black" cx="115.93" cy="-378" rx="27" ry="18"/>
<text text-anchor="middle" x="115.93" y="-373.8" font-family="Times,serif" font-size="14.00">11</text>
</g>
<!-- 11&#45;&gt;10 -->
<g id="edge11" class="edge"><title>11&#45;&gt;10</title>
<path fill="none" stroke="black" d="M115.93,-359.697C115.93,-351.983 115.93,-342.712 115.93,-334.112"/>
<polygon fill="black" stroke="black" points="119.43,-334.104 115.93,-324.104 112.43,-334.104 119.43,-334.104"/>
</g>
<!-- 12 -->
<g id="node13" class="node"><title>12</title>
<ellipse fill="none" stroke="black" cx="115.93" cy="-450" rx="27" ry="18"/>
<text text-anchor="middle" x="115.93" y="-445.8" font-family="Times,serif" font-size="14.00">12</text>
</g>
<!-- 12&#45;&gt;11 -->
<g id="edge12" class="edge"><title>12&#45;&gt;11</title>
<path fill="none" stroke="black" d="M115.93,-431.697C115.93,-423.983 115.93,-414.712 115.93,-406.112"/>
<polygon fill="black" stroke="black" points="119.43,-406.104 115.93,-396.104 112.43,-406.104 119.43,-406.104"/>
</g>
</g>
</svg>
