<?xml version="1.0" encoding="UTF-8" standalone="no"?>
<!DOCTYPE svg PUBLIC "-//W3C//DTD SVG 1.1//EN"
 "http://www.w3.org/Graphics/SVG/1.1/DTD/svg11.dtd">
<!-- Generated by graphviz version 2.38.0 (20140413.2041)
 -->
<!-- Title: %3 Pages: 1 -->
<svg width="1417pt" height="404pt"
 viewBox="0.00 0.00 1416.81 404.00" xmlns="http://www.w3.org/2000/svg" xmlns:xlink="http://www.w3.org/1999/xlink">
<g id="graph0" class="graph" transform="scale(1 1) rotate(0) translate(4 400)">
<title>%3</title>
<polygon fill="white" stroke="none" points="-4,4 -4,-400 1412.81,-400 1412.81,4 -4,4"/>
<!-- 0 -->
<g id="node1" class="node"><title>0</title>
<ellipse fill="cyan" stroke="black" cx="638.195" cy="-18" rx="64.764" ry="18"/>
<text text-anchor="middle" x="638.195" y="-13.8" font-family="Times,serif" font-size="14.00">0:(48,96,60,12)</text>
</g>
<!-- 1 -->
<g id="node2" class="node"><title>1</title>
<ellipse fill="cyan" stroke="black" cx="558.195" cy="-90" rx="64.764" ry="18"/>
<text text-anchor="middle" x="558.195" y="-85.8" font-family="Times,serif" font-size="14.00">1:(16,48,48,15)</text>
</g>
<!-- 1&#45;&gt;0 -->
<g id="edge1" class="edge"><title>1&#45;&gt;0</title>
<path fill="none" stroke="black" d="M577.154,-72.411C587.515,-63.3446 600.51,-51.9742 611.844,-42.0572"/>
<polygon fill="black" stroke="black" points="614.151,-44.6891 619.372,-35.4699 609.542,-39.421 614.151,-44.6891"/>
</g>
<!-- 2 -->
<g id="node3" class="node"><title>2</title>
<ellipse fill="cyan" stroke="black" cx="719.195" cy="-90" rx="78.2945" ry="18"/>
<text text-anchor="middle" x="719.195" y="-85.8" font-family="Times,serif" font-size="14.00">2:(108,264,210,54)</text>
</g>
<!-- 2&#45;&gt;0 -->
<g id="edge2" class="edge"><title>2&#45;&gt;0</title>
<path fill="none" stroke="black" d="M699.999,-72.411C689.508,-63.3446 676.351,-51.9742 664.875,-42.0572"/>
<polygon fill="black" stroke="black" points="667.108,-39.3605 657.253,-35.4699 662.531,-44.6568 667.108,-39.3605"/>
</g>
<!-- 3 -->
<g id="node4" class="node"><title>3</title>
<ellipse fill="cyan" stroke="black" cx="756.195" cy="-162" rx="47.3907" ry="18"/>
<text text-anchor="middle" x="756.195" y="-157.8" font-family="Times,serif" font-size="14.00">3:(3,9,9,3)</text>
</g>
<!-- 3&#45;&gt;1 -->
<g id="edge3" class="edge"><title>3&#45;&gt;1</title>
<path fill="none" stroke="black" d="M722.607,-149.125C690.738,-137.859 642.5,-120.805 606.506,-108.08"/>
<polygon fill="black" stroke="black" points="607.296,-104.647 596.702,-104.613 604.963,-111.247 607.296,-104.647"/>
</g>
<!-- 3&#45;&gt;2 -->
<g id="edge4" class="edge"><title>3&#45;&gt;2</title>
<path fill="none" stroke="black" d="M747.238,-144.055C742.984,-136.007 737.803,-126.205 733.057,-117.226"/>
<polygon fill="black" stroke="black" points="736.094,-115.481 728.326,-108.275 729.905,-118.752 736.094,-115.481"/>
</g>
<!-- 4 -->
<g id="node5" class="node"><title>4</title>
<ellipse fill="cyan" stroke="black" cx="55.195" cy="-162" rx="47.3907" ry="18"/>
<text text-anchor="middle" x="55.195" y="-157.8" font-family="Times,serif" font-size="14.00">4:(3,9,9,3)</text>
</g>
<!-- 4&#45;&gt;1 -->
<g id="edge5" class="edge"><title>4&#45;&gt;1</title>
<path fill="none" stroke="black" d="M89.5997,-149.513C96.6825,-147.444 104.134,-145.478 111.195,-144 241.557,-116.708 396.462,-102.265 485.452,-95.6582"/>
<polygon fill="black" stroke="black" points="485.724,-99.1478 495.442,-94.929 485.214,-92.1664 485.724,-99.1478"/>
</g>
<!-- 4&#45;&gt;2 -->
<g id="edge6" class="edge"><title>4&#45;&gt;2</title>
<path fill="none" stroke="black" d="M88.9483,-149.415C96.2122,-147.3 103.9,-145.341 111.195,-144 339.475,-102.021 402.075,-138.315 632.195,-108 639.328,-107.06 646.757,-105.897 654.137,-104.623"/>
<polygon fill="black" stroke="black" points="654.912,-108.04 664.136,-102.827 653.675,-101.15 654.912,-108.04"/>
</g>
<!-- 5 -->
<g id="node6" class="node"><title>5</title>
<ellipse fill="cyan" stroke="black" cx="47.195" cy="-234" rx="47.3907" ry="18"/>
<text text-anchor="middle" x="47.195" y="-229.8" font-family="Times,serif" font-size="14.00">5:(1,3,3,1)</text>
</g>
<!-- 5&#45;&gt;4 -->
<g id="edge7" class="edge"><title>5&#45;&gt;4</title>
<path fill="none" stroke="black" d="M49.1725,-215.697C50.0541,-207.983 51.1135,-198.712 52.0964,-190.112"/>
<polygon fill="black" stroke="black" points="55.582,-190.437 53.2402,-180.104 48.6273,-189.642 55.582,-190.437"/>
</g>
<!-- 6 -->
<g id="node7" class="node"><title>6</title>
<ellipse fill="cyan" stroke="black" cx="410.195" cy="-162" rx="47.3907" ry="18"/>
<text text-anchor="middle" x="410.195" y="-157.8" font-family="Times,serif" font-size="14.00">6:(1,3,3,1)</text>
</g>
<!-- 6&#45;&gt;2 -->
<g id="edge8" class="edge"><title>6&#45;&gt;2</title>
<path fill="none" stroke="black" d="M445.312,-149.822C452.205,-147.775 459.403,-145.739 466.195,-144 500.705,-135.166 589.711,-116.906 652.35,-104.308"/>
<polygon fill="black" stroke="black" points="653.05,-107.738 662.165,-102.337 651.672,-100.875 653.05,-107.738"/>
</g>
<!-- 7 -->
<g id="node8" class="node"><title>7</title>
<ellipse fill="cyan" stroke="black" cx="522.195" cy="-162" rx="47.3907" ry="18"/>
<text text-anchor="middle" x="522.195" y="-157.8" font-family="Times,serif" font-size="14.00">7:(3,9,9,3)</text>
</g>
<!-- 7&#45;&gt;1 -->
<g id="edge9" class="edge"><title>7&#45;&gt;1</title>
<path fill="none" stroke="black" d="M530.91,-144.055C535.049,-136.007 540.09,-126.205 544.707,-117.226"/>
<polygon fill="black" stroke="black" points="547.85,-118.769 549.311,-108.275 541.624,-115.567 547.85,-118.769"/>
</g>
<!-- 7&#45;&gt;2 -->
<g id="edge10" class="edge"><title>7&#45;&gt;2</title>
<path fill="none" stroke="black" d="M555.613,-149.125C586.619,-138.108 633.197,-121.558 668.731,-108.931"/>
<polygon fill="black" stroke="black" points="670.187,-112.128 678.438,-105.482 667.843,-105.532 670.187,-112.128"/>
</g>
<!-- 8 -->
<g id="node9" class="node"><title>8</title>
<ellipse fill="cyan" stroke="black" cx="402.195" cy="-234" rx="47.3907" ry="18"/>
<text text-anchor="middle" x="402.195" y="-229.8" font-family="Times,serif" font-size="14.00">8:(1,3,3,1)</text>
</g>
<!-- 8&#45;&gt;4 -->
<g id="edge11" class="edge"><title>8&#45;&gt;4</title>
<path fill="none" stroke="black" d="M367.45,-221.613C360.46,-219.56 353.131,-217.575 346.195,-216 243.157,-192.594 214.233,-203.406 111.195,-180 107.402,-179.138 103.491,-178.154 99.5828,-177.104"/>
<polygon fill="black" stroke="black" points="100.514,-173.73 89.94,-174.387 98.6161,-180.468 100.514,-173.73"/>
</g>
<!-- 8&#45;&gt;6 -->
<g id="edge12" class="edge"><title>8&#45;&gt;6</title>
<path fill="none" stroke="black" d="M404.172,-215.697C405.054,-207.983 406.114,-198.712 407.096,-190.112"/>
<polygon fill="black" stroke="black" points="410.582,-190.437 408.24,-180.104 403.627,-189.642 410.582,-190.437"/>
</g>
<!-- 8&#45;&gt;7 -->
<g id="edge13" class="edge"><title>8&#45;&gt;7</title>
<path fill="none" stroke="black" d="M427.059,-218.496C444.838,-208.125 468.973,-194.046 488.484,-182.665"/>
<polygon fill="black" stroke="black" points="490.489,-185.547 497.363,-177.485 486.961,-179.501 490.489,-185.547"/>
</g>
<!-- 9 -->
<g id="node10" class="node"><title>9</title>
<ellipse fill="cyan" stroke="black" cx="514.195" cy="-234" rx="47.3907" ry="18"/>
<text text-anchor="middle" x="514.195" y="-229.8" font-family="Times,serif" font-size="14.00">9:(1,3,3,1)</text>
</g>
<!-- 9&#45;&gt;7 -->
<g id="edge14" class="edge"><title>9&#45;&gt;7</title>
<path fill="none" stroke="black" d="M516.172,-215.697C517.054,-207.983 518.114,-198.712 519.096,-190.112"/>
<polygon fill="black" stroke="black" points="522.582,-190.437 520.24,-180.104 515.627,-189.642 522.582,-190.437"/>
</g>
<!-- 10 -->
<g id="node11" class="node"><title>10</title>
<ellipse fill="cyan" stroke="black" cx="393.195" cy="-306" rx="51.7337" ry="18"/>
<text text-anchor="middle" x="393.195" y="-301.8" font-family="Times,serif" font-size="14.00">10:(1,3,3,1)</text>
</g>
<!-- 10&#45;&gt;5 -->
<g id="edge17" class="edge"><title>10&#45;&gt;5</title>
<path fill="none" stroke="black" d="M346.644,-298.168C289.072,-289.335 188.253,-272.612 103.195,-252 99.4149,-251.084 95.5131,-250.062 91.6105,-248.986"/>
<polygon fill="black" stroke="black" points="92.5541,-245.615 81.977,-246.229 90.6284,-252.345 92.5541,-245.615"/>
</g>
<!-- 10&#45;&gt;8 -->
<g id="edge15" class="edge"><title>10&#45;&gt;8</title>
<path fill="none" stroke="black" d="M395.42,-287.697C396.411,-279.983 397.603,-270.712 398.709,-262.112"/>
<polygon fill="black" stroke="black" points="402.192,-262.469 399.996,-252.104 395.249,-261.576 402.192,-262.469"/>
</g>
<!-- 10&#45;&gt;9 -->
<g id="edge16" class="edge"><title>10&#45;&gt;9</title>
<path fill="none" stroke="black" d="M418.856,-290.155C436.822,-279.761 461.006,-265.77 480.521,-254.481"/>
<polygon fill="black" stroke="black" points="482.495,-257.382 489.399,-249.345 478.99,-251.323 482.495,-257.382"/>
</g>
<!-- 11 -->
<g id="node12" class="node"><title>11</title>
<ellipse fill="cyan" stroke="black" cx="1236.19" cy="-162" rx="51.0865" ry="18"/>
<text text-anchor="middle" x="1236.19" y="-157.8" font-family="Times,serif" font-size="14.00">11:(3,9,9,3)</text>
</g>
<!-- 11&#45;&gt;1 -->
<g id="edge18" class="edge"><title>11&#45;&gt;1</title>
<path fill="none" stroke="black" d="M1199.67,-149.335C1191.98,-147.253 1183.88,-145.327 1176.19,-144 937.426,-102.746 871.926,-143.238 632.195,-108 626.347,-107.14 620.276,-106.06 614.242,-104.863"/>
<polygon fill="black" stroke="black" points="614.669,-101.377 604.164,-102.757 613.237,-108.229 614.669,-101.377"/>
</g>
<!-- 11&#45;&gt;2 -->
<g id="edge19" class="edge"><title>11&#45;&gt;2</title>
<path fill="none" stroke="black" d="M1198.97,-149.453C1191.48,-147.413 1183.63,-145.474 1176.19,-144 1047.44,-118.466 895.665,-103.874 803.484,-96.6977"/>
<polygon fill="black" stroke="black" points="803.611,-93.1973 793.372,-95.9218 803.075,-100.177 803.611,-93.1973"/>
</g>
<!-- 12 -->
<g id="node13" class="node"><title>12</title>
<ellipse fill="cyan" stroke="black" cx="1236.19" cy="-234" rx="51.7337" ry="18"/>
<text text-anchor="middle" x="1236.19" y="-229.8" font-family="Times,serif" font-size="14.00">12:(1,3,3,1)</text>
</g>
<!-- 12&#45;&gt;11 -->
<g id="edge20" class="edge"><title>12&#45;&gt;11</title>
<path fill="none" stroke="black" d="M1236.19,-215.697C1236.19,-207.983 1236.19,-198.712 1236.19,-190.112"/>
<polygon fill="black" stroke="black" points="1239.7,-190.104 1236.19,-180.104 1232.7,-190.104 1239.7,-190.104"/>
</g>
<!-- 13 -->
<g id="node14" class="node"><title>13</title>
<ellipse fill="cyan" stroke="black" cx="994.195" cy="-162" rx="51.7337" ry="18"/>
<text text-anchor="middle" x="994.195" y="-157.8" font-family="Times,serif" font-size="14.00">13:(3,9,9,3)</text>
</g>
<!-- 13&#45;&gt;1 -->
<g id="edge21" class="edge"><title>13&#45;&gt;1</title>
<path fill="none" stroke="black" d="M956.969,-149.472C949.48,-147.431 941.627,-145.486 934.195,-144 801.647,-117.494 765.368,-131.166 632.195,-108 626.538,-107.016 620.663,-105.874 614.808,-104.658"/>
<polygon fill="black" stroke="black" points="615.529,-101.233 605.017,-102.553 614.059,-108.077 615.529,-101.233"/>
</g>
<!-- 13&#45;&gt;2 -->
<g id="edge22" class="edge"><title>13&#45;&gt;2</title>
<path fill="none" stroke="black" d="M955.839,-149.92C948.659,-147.907 941.207,-145.857 934.195,-144 882.997,-130.441 824.637,-116.126 781.651,-105.796"/>
<polygon fill="black" stroke="black" points="782.437,-102.385 771.897,-103.457 780.805,-109.192 782.437,-102.385"/>
</g>
<!-- 14 -->
<g id="node15" class="node"><title>14</title>
<ellipse fill="cyan" stroke="black" cx="994.195" cy="-234" rx="51.7337" ry="18"/>
<text text-anchor="middle" x="994.195" y="-229.8" font-family="Times,serif" font-size="14.00">14:(1,3,3,1)</text>
</g>
<!-- 14&#45;&gt;13 -->
<g id="edge23" class="edge"><title>14&#45;&gt;13</title>
<path fill="none" stroke="black" d="M994.195,-215.697C994.195,-207.983 994.195,-198.712 994.195,-190.112"/>
<polygon fill="black" stroke="black" points="997.695,-190.104 994.195,-180.104 990.695,-190.104 997.695,-190.104"/>
</g>
<!-- 15 -->
<g id="node16" class="node"><title>15</title>
<ellipse fill="cyan" stroke="black" cx="1357.19" cy="-162" rx="51.7337" ry="18"/>
<text text-anchor="middle" x="1357.19" y="-157.8" font-family="Times,serif" font-size="14.00">15:(1,3,3,1)</text>
</g>
<!-- 15&#45;&gt;2 -->
<g id="edge24" class="edge"><title>15&#45;&gt;2</title>
<path fill="none" stroke="black" d="M1320.02,-149.494C1312.21,-147.401 1303.98,-145.43 1296.19,-144 1124.04,-112.372 919.352,-99.2536 805.884,-94.0947"/>
<polygon fill="black" stroke="black" points="806.009,-90.5969 795.863,-93.6491 805.698,-97.59 806.009,-90.5969"/>
</g>
<!-- 16 -->
<g id="node17" class="node"><title>16</title>
<ellipse fill="cyan" stroke="black" cx="1357.19" cy="-234" rx="51.7337" ry="18"/>
<text text-anchor="middle" x="1357.19" y="-229.8" font-family="Times,serif" font-size="14.00">16:(1,3,3,1)</text>
</g>
<!-- 16&#45;&gt;11 -->
<g id="edge25" class="edge"><title>16&#45;&gt;11</title>
<path fill="none" stroke="black" d="M1331.53,-218.155C1313.81,-207.9 1290.03,-194.143 1270.65,-182.934"/>
<polygon fill="black" stroke="black" points="1272.23,-179.802 1261.82,-177.824 1268.72,-185.861 1272.23,-179.802"/>
</g>
<!-- 16&#45;&gt;13 -->
<g id="edge26" class="edge"><title>16&#45;&gt;13</title>
<path fill="none" stroke="black" d="M1319.61,-221.551C1312.22,-219.527 1304.5,-217.569 1297.19,-216 1190.45,-193.071 1160.94,-202.929 1054.19,-180 1050.09,-179.118 1045.84,-178.112 1041.6,-177.041"/>
<polygon fill="black" stroke="black" points="1042.34,-173.615 1031.78,-174.449 1040.55,-180.383 1042.34,-173.615"/>
</g>
<!-- 16&#45;&gt;15 -->
<g id="edge27" class="edge"><title>16&#45;&gt;15</title>
<path fill="none" stroke="black" d="M1357.19,-215.697C1357.19,-207.983 1357.19,-198.712 1357.19,-190.112"/>
<polygon fill="black" stroke="black" points="1360.7,-190.104 1357.19,-180.104 1353.7,-190.104 1360.7,-190.104"/>
</g>
<!-- 17 -->
<g id="node18" class="node"><title>17</title>
<ellipse fill="cyan" stroke="black" cx="1236.19" cy="-306" rx="51.7337" ry="18"/>
<text text-anchor="middle" x="1236.19" y="-301.8" font-family="Times,serif" font-size="14.00">17:(1,3,3,1)</text>
</g>
<!-- 17&#45;&gt;12 -->
<g id="edge29" class="edge"><title>17&#45;&gt;12</title>
<path fill="none" stroke="black" d="M1236.19,-287.697C1236.19,-279.983 1236.19,-270.712 1236.19,-262.112"/>
<polygon fill="black" stroke="black" points="1239.7,-262.104 1236.19,-252.104 1232.7,-262.104 1239.7,-262.104"/>
</g>
<!-- 17&#45;&gt;14 -->
<g id="edge30" class="edge"><title>17&#45;&gt;14</title>
<path fill="none" stroke="black" d="M1197.85,-293.908C1155.76,-281.733 1088.1,-262.164 1042.44,-248.955"/>
<polygon fill="black" stroke="black" points="1043.34,-245.572 1032.76,-246.155 1041.39,-252.296 1043.34,-245.572"/>
</g>
<!-- 17&#45;&gt;16 -->
<g id="edge28" class="edge"><title>17&#45;&gt;16</title>
<path fill="none" stroke="black" d="M1261.86,-290.155C1279.58,-279.9 1303.36,-266.143 1322.74,-254.934"/>
<polygon fill="black" stroke="black" points="1324.67,-257.861 1331.57,-249.824 1321.16,-251.802 1324.67,-257.861"/>
</g>
<!-- 18 -->
<g id="node19" class="node"><title>18</title>
<ellipse fill="cyan" stroke="black" cx="1115.19" cy="-162" rx="51.7337" ry="18"/>
<text text-anchor="middle" x="1115.19" y="-157.8" font-family="Times,serif" font-size="14.00">18:(1,3,3,1)</text>
</g>
<!-- 18&#45;&gt;2 -->
<g id="edge31" class="edge"><title>18&#45;&gt;2</title>
<path fill="none" stroke="black" d="M1077.6,-149.605C1070.21,-147.577 1062.49,-145.603 1055.19,-144 967.415,-124.714 865.257,-109.628 796.838,-100.564"/>
<polygon fill="black" stroke="black" points="796.945,-97.0477 786.574,-99.2155 796.033,-103.988 796.945,-97.0477"/>
</g>
<!-- 19 -->
<g id="node20" class="node"><title>19</title>
<ellipse fill="cyan" stroke="black" cx="1115.19" cy="-234" rx="51.7337" ry="18"/>
<text text-anchor="middle" x="1115.19" y="-229.8" font-family="Times,serif" font-size="14.00">19:(1,3,3,1)</text>
</g>
<!-- 19&#45;&gt;3 -->
<g id="edge32" class="edge"><title>19&#45;&gt;3</title>
<path fill="none" stroke="black" d="M1077.61,-221.551C1070.22,-219.527 1062.5,-217.569 1055.19,-216 948.451,-193.071 918.721,-203.922 812.195,-180 808.346,-179.136 804.376,-178.142 800.411,-177.079"/>
<polygon fill="black" stroke="black" points="801.209,-173.668 790.635,-174.326 799.311,-180.406 801.209,-173.668"/>
</g>
<!-- 19&#45;&gt;11 -->
<g id="edge34" class="edge"><title>19&#45;&gt;11</title>
<path fill="none" stroke="black" d="M1140.86,-218.155C1158.58,-207.9 1182.36,-194.143 1201.74,-182.934"/>
<polygon fill="black" stroke="black" points="1203.67,-185.861 1210.57,-177.824 1200.16,-179.802 1203.67,-185.861"/>
</g>
<!-- 19&#45;&gt;18 -->
<g id="edge33" class="edge"><title>19&#45;&gt;18</title>
<path fill="none" stroke="black" d="M1115.19,-215.697C1115.19,-207.983 1115.19,-198.712 1115.19,-190.112"/>
<polygon fill="black" stroke="black" points="1118.7,-190.104 1115.19,-180.104 1111.7,-190.104 1118.7,-190.104"/>
</g>
<!-- 20 -->
<g id="node21" class="node"><title>20</title>
<ellipse fill="cyan" stroke="black" cx="752.195" cy="-234" rx="51.7337" ry="18"/>
<text text-anchor="middle" x="752.195" y="-229.8" font-family="Times,serif" font-size="14.00">20:(1,3,3,1)</text>
</g>
<!-- 20&#45;&gt;3 -->
<g id="edge35" class="edge"><title>20&#45;&gt;3</title>
<path fill="none" stroke="black" d="M753.184,-215.697C753.625,-207.983 754.154,-198.712 754.646,-190.112"/>
<polygon fill="black" stroke="black" points="758.141,-190.288 755.218,-180.104 751.153,-189.888 758.141,-190.288"/>
</g>
<!-- 21 -->
<g id="node22" class="node"><title>21</title>
<ellipse fill="cyan" stroke="black" cx="1115.19" cy="-306" rx="51.7337" ry="18"/>
<text text-anchor="middle" x="1115.19" y="-301.8" font-family="Times,serif" font-size="14.00">21:(1,3,3,1)</text>
</g>
<!-- 21&#45;&gt;12 -->
<g id="edge38" class="edge"><title>21&#45;&gt;12</title>
<path fill="none" stroke="black" d="M1140.86,-290.155C1158.58,-279.9 1182.36,-266.143 1201.74,-254.934"/>
<polygon fill="black" stroke="black" points="1203.67,-257.861 1210.57,-249.824 1200.16,-251.802 1203.67,-257.861"/>
</g>
<!-- 21&#45;&gt;19 -->
<g id="edge37" class="edge"><title>21&#45;&gt;19</title>
<path fill="none" stroke="black" d="M1115.19,-287.697C1115.19,-279.983 1115.19,-270.712 1115.19,-262.112"/>
<polygon fill="black" stroke="black" points="1118.7,-262.104 1115.19,-252.104 1111.7,-262.104 1118.7,-262.104"/>
</g>
<!-- 21&#45;&gt;20 -->
<g id="edge36" class="edge"><title>21&#45;&gt;20</title>
<path fill="none" stroke="black" d="M1068.44,-298.35C1008.66,-289.499 902.131,-272.549 812.195,-252 808.158,-251.078 803.988,-250.051 799.814,-248.973"/>
<polygon fill="black" stroke="black" points="800.696,-245.586 790.132,-246.386 798.889,-252.348 800.696,-245.586"/>
</g>
<!-- 22 -->
<g id="node23" class="node"><title>22</title>
<ellipse fill="cyan" stroke="black" cx="873.195" cy="-162" rx="51.7337" ry="18"/>
<text text-anchor="middle" x="873.195" y="-157.8" font-family="Times,serif" font-size="14.00">22:(1,3,3,1)</text>
</g>
<!-- 22&#45;&gt;2 -->
<g id="edge39" class="edge"><title>22&#45;&gt;2</title>
<path fill="none" stroke="black" d="M843.137,-147.337C820.061,-136.848 787.889,-122.225 762.107,-110.505"/>
<polygon fill="black" stroke="black" points="763.477,-107.284 752.925,-106.332 760.581,-113.656 763.477,-107.284"/>
</g>
<!-- 23 -->
<g id="node24" class="node"><title>23</title>
<ellipse fill="cyan" stroke="black" cx="873.195" cy="-234" rx="51.7337" ry="18"/>
<text text-anchor="middle" x="873.195" y="-229.8" font-family="Times,serif" font-size="14.00">23:(1,3,3,1)</text>
</g>
<!-- 23&#45;&gt;3 -->
<g id="edge40" class="edge"><title>23&#45;&gt;3</title>
<path fill="none" stroke="black" d="M848.382,-218.155C831.204,-207.877 808.146,-194.082 789.389,-182.86"/>
<polygon fill="black" stroke="black" points="790.949,-179.714 780.571,-177.584 787.355,-185.721 790.949,-179.714"/>
</g>
<!-- 23&#45;&gt;13 -->
<g id="edge41" class="edge"><title>23&#45;&gt;13</title>
<path fill="none" stroke="black" d="M898.856,-218.155C916.583,-207.9 940.363,-194.143 959.738,-182.934"/>
<polygon fill="black" stroke="black" points="961.668,-185.861 968.571,-177.824 958.162,-179.802 961.668,-185.861"/>
</g>
<!-- 23&#45;&gt;22 -->
<g id="edge42" class="edge"><title>23&#45;&gt;22</title>
<path fill="none" stroke="black" d="M873.195,-215.697C873.195,-207.983 873.195,-198.712 873.195,-190.112"/>
<polygon fill="black" stroke="black" points="876.695,-190.104 873.195,-180.104 869.695,-190.104 876.695,-190.104"/>
</g>
<!-- 24 -->
<g id="node25" class="node"><title>24</title>
<ellipse fill="cyan" stroke="black" cx="933.195" cy="-306" rx="51.7337" ry="18"/>
<text text-anchor="middle" x="933.195" y="-301.8" font-family="Times,serif" font-size="14.00">24:(1,3,3,1)</text>
</g>
<!-- 24&#45;&gt;14 -->
<g id="edge44" class="edge"><title>24&#45;&gt;14</title>
<path fill="none" stroke="black" d="M947.651,-288.411C955.248,-279.693 964.701,-268.845 973.1,-259.208"/>
<polygon fill="black" stroke="black" points="975.911,-261.309 979.843,-251.47 970.634,-256.71 975.911,-261.309"/>
</g>
<!-- 24&#45;&gt;20 -->
<g id="edge43" class="edge"><title>24&#45;&gt;20</title>
<path fill="none" stroke="black" d="M899.997,-292.161C870.493,-280.751 827.186,-264.002 795.069,-251.581"/>
<polygon fill="black" stroke="black" points="796.078,-248.219 785.489,-247.876 793.553,-254.748 796.078,-248.219"/>
</g>
<!-- 24&#45;&gt;23 -->
<g id="edge45" class="edge"><title>24&#45;&gt;23</title>
<path fill="none" stroke="black" d="M918.976,-288.411C911.504,-279.693 902.205,-268.845 893.944,-259.208"/>
<polygon fill="black" stroke="black" points="896.477,-256.785 887.312,-251.47 891.163,-261.34 896.477,-256.785"/>
</g>
<!-- 25 -->
<g id="node26" class="node"><title>25</title>
<ellipse fill="cyan" stroke="black" cx="1115.19" cy="-378" rx="51.7337" ry="18"/>
<text text-anchor="middle" x="1115.19" y="-373.8" font-family="Times,serif" font-size="14.00">25:(1,3,3,1)</text>
</g>
<!-- 25&#45;&gt;17 -->
<g id="edge47" class="edge"><title>25&#45;&gt;17</title>
<path fill="none" stroke="black" d="M1140.86,-362.155C1158.58,-351.9 1182.36,-338.143 1201.74,-326.934"/>
<polygon fill="black" stroke="black" points="1203.67,-329.861 1210.57,-321.824 1200.16,-323.802 1203.67,-329.861"/>
</g>
<!-- 25&#45;&gt;21 -->
<g id="edge48" class="edge"><title>25&#45;&gt;21</title>
<path fill="none" stroke="black" d="M1115.19,-359.697C1115.19,-351.983 1115.19,-342.712 1115.19,-334.112"/>
<polygon fill="black" stroke="black" points="1118.7,-334.104 1115.19,-324.104 1111.7,-334.104 1118.7,-334.104"/>
</g>
<!-- 25&#45;&gt;24 -->
<g id="edge46" class="edge"><title>25&#45;&gt;24</title>
<path fill="none" stroke="black" d="M1081.81,-364.161C1052.15,-352.751 1008.6,-336.002 976.306,-323.581"/>
<polygon fill="black" stroke="black" points="977.263,-320.199 966.673,-319.876 974.75,-326.733 977.263,-320.199"/>
</g>
<!-- 26 -->
<g id="node27" class="node"><title>26</title>
<ellipse fill="cyan" stroke="black" cx="172.195" cy="-162" rx="51.7337" ry="18"/>
<text text-anchor="middle" x="172.195" y="-157.8" font-family="Times,serif" font-size="14.00">26:(1,3,3,1)</text>
</g>
<!-- 26&#45;&gt;2 -->
<g id="edge49" class="edge"><title>26&#45;&gt;2</title>
<path fill="none" stroke="black" d="M209.067,-149.388C216.655,-147.329 224.636,-145.398 232.195,-144 407.713,-111.53 455.479,-133.149 632.195,-108 639.213,-107.001 646.522,-105.811 653.791,-104.532"/>
<polygon fill="black" stroke="black" points="654.433,-107.973 663.646,-102.741 653.181,-101.085 654.433,-107.973"/>
</g>
<!-- 27 -->
<g id="node28" class="node"><title>27</title>
<ellipse fill="cyan" stroke="black" cx="293.195" cy="-162" rx="51.7337" ry="18"/>
<text text-anchor="middle" x="293.195" y="-157.8" font-family="Times,serif" font-size="14.00">27:(3,9,9,3)</text>
</g>
<!-- 27&#45;&gt;1 -->
<g id="edge50" class="edge"><title>27&#45;&gt;1</title>
<path fill="none" stroke="black" d="M332.217,-150.015C339.514,-147.992 347.082,-145.915 354.195,-144 404.138,-130.554 461.12,-115.799 502.143,-105.279"/>
<polygon fill="black" stroke="black" points="503.134,-108.639 511.952,-102.767 501.397,-101.858 503.134,-108.639"/>
</g>
<!-- 27&#45;&gt;2 -->
<g id="edge51" class="edge"><title>27&#45;&gt;2</title>
<path fill="none" stroke="black" d="M330.737,-149.631C338.447,-147.552 346.545,-145.553 354.195,-144 476.292,-119.213 509.216,-127.957 632.195,-108 638.829,-106.923 645.732,-105.719 652.618,-104.463"/>
<polygon fill="black" stroke="black" points="653.472,-107.864 662.663,-102.593 652.191,-100.982 653.472,-107.864"/>
</g>
<!-- 28 -->
<g id="node29" class="node"><title>28</title>
<ellipse fill="cyan" stroke="black" cx="639.195" cy="-162" rx="51.7337" ry="18"/>
<text text-anchor="middle" x="639.195" y="-157.8" font-family="Times,serif" font-size="14.00">28:(1,3,3,1)</text>
</g>
<!-- 28&#45;&gt;2 -->
<g id="edge52" class="edge"><title>28&#45;&gt;2</title>
<path fill="none" stroke="black" d="M657.348,-145.116C667.761,-136.005 681.023,-124.4 692.594,-114.276"/>
<polygon fill="black" stroke="black" points="695.058,-116.771 700.279,-107.552 690.448,-111.503 695.058,-116.771"/>
</g>
<!-- 29 -->
<g id="node30" class="node"><title>29</title>
<ellipse fill="cyan" stroke="black" cx="164.195" cy="-234" rx="51.7337" ry="18"/>
<text text-anchor="middle" x="164.195" y="-229.8" font-family="Times,serif" font-size="14.00">29:(1,3,3,1)</text>
</g>
<!-- 29&#45;&gt;4 -->
<g id="edge55" class="edge"><title>29&#45;&gt;4</title>
<path fill="none" stroke="black" d="M140.544,-217.811C124.868,-207.744 104.115,-194.417 86.9989,-183.425"/>
<polygon fill="black" stroke="black" points="88.7313,-180.378 78.4257,-177.919 84.9487,-186.268 88.7313,-180.378"/>
</g>
<!-- 29&#45;&gt;26 -->
<g id="edge53" class="edge"><title>29&#45;&gt;26</title>
<path fill="none" stroke="black" d="M166.172,-215.697C167.054,-207.983 168.114,-198.712 169.096,-190.112"/>
<polygon fill="black" stroke="black" points="172.582,-190.437 170.24,-180.104 165.627,-189.642 172.582,-190.437"/>
</g>
<!-- 29&#45;&gt;27 -->
<g id="edge54" class="edge"><title>29&#45;&gt;27</title>
<path fill="none" stroke="black" d="M190.924,-218.496C210.21,-208.031 236.451,-193.791 257.524,-182.356"/>
<polygon fill="black" stroke="black" points="259.38,-185.331 266.5,-177.485 256.042,-179.179 259.38,-185.331"/>
</g>
<!-- 30 -->
<g id="node31" class="node"><title>30</title>
<ellipse fill="cyan" stroke="black" cx="285.195" cy="-234" rx="51.7337" ry="18"/>
<text text-anchor="middle" x="285.195" y="-229.8" font-family="Times,serif" font-size="14.00">30:(1,3,3,1)</text>
</g>
<!-- 30&#45;&gt;27 -->
<g id="edge56" class="edge"><title>30&#45;&gt;27</title>
<path fill="none" stroke="black" d="M287.172,-215.697C288.054,-207.983 289.114,-198.712 290.096,-190.112"/>
<polygon fill="black" stroke="black" points="293.582,-190.437 291.24,-180.104 286.627,-189.642 293.582,-190.437"/>
</g>
<!-- 31 -->
<g id="node32" class="node"><title>31</title>
<ellipse fill="cyan" stroke="black" cx="218.195" cy="-306" rx="51.7337" ry="18"/>
<text text-anchor="middle" x="218.195" y="-301.8" font-family="Times,serif" font-size="14.00">31:(1,3,3,1)</text>
</g>
<!-- 31&#45;&gt;5 -->
<g id="edge59" class="edge"><title>31&#45;&gt;5</title>
<path fill="none" stroke="black" d="M186.031,-291.834C158.095,-280.398 117.512,-263.785 87.4308,-251.471"/>
<polygon fill="black" stroke="black" points="88.6433,-248.185 78.0628,-247.636 85.9914,-254.664 88.6433,-248.185"/>
</g>
<!-- 31&#45;&gt;29 -->
<g id="edge57" class="edge"><title>31&#45;&gt;29</title>
<path fill="none" stroke="black" d="M205.398,-288.411C198.74,-279.781 190.471,-269.062 183.093,-259.497"/>
<polygon fill="black" stroke="black" points="185.78,-257.25 176.9,-251.47 180.237,-261.526 185.78,-257.25"/>
</g>
<!-- 31&#45;&gt;30 -->
<g id="edge58" class="edge"><title>31&#45;&gt;30</title>
<path fill="none" stroke="black" d="M233.735,-288.765C242.153,-279.969 252.721,-268.928 262.086,-259.144"/>
<polygon fill="black" stroke="black" points="264.888,-261.278 269.274,-251.633 259.831,-256.437 264.888,-261.278"/>
</g>
<!-- 32 -->
<g id="node33" class="node"><title>32</title>
<ellipse fill="cyan" stroke="black" cx="631.195" cy="-234" rx="51.7337" ry="18"/>
<text text-anchor="middle" x="631.195" y="-229.8" font-family="Times,serif" font-size="14.00">32:(1,3,3,1)</text>
</g>
<!-- 32&#45;&gt;7 -->
<g id="edge62" class="edge"><title>32&#45;&gt;7</title>
<path fill="none" stroke="black" d="M607.544,-217.811C591.868,-207.744 571.115,-194.417 553.999,-183.425"/>
<polygon fill="black" stroke="black" points="555.731,-180.378 545.426,-177.919 551.949,-186.268 555.731,-180.378"/>
</g>
<!-- 32&#45;&gt;27 -->
<g id="edge60" class="edge"><title>32&#45;&gt;27</title>
<path fill="none" stroke="black" d="M593.281,-221.76C585.673,-219.695 577.708,-217.668 570.195,-216 475.184,-194.906 449.206,-201.094 354.195,-180 349.852,-179.036 345.357,-177.951 340.868,-176.809"/>
<polygon fill="black" stroke="black" points="341.67,-173.401 331.109,-174.24 339.888,-180.171 341.67,-173.401"/>
</g>
<!-- 32&#45;&gt;28 -->
<g id="edge61" class="edge"><title>32&#45;&gt;28</title>
<path fill="none" stroke="black" d="M633.172,-215.697C634.054,-207.983 635.114,-198.712 636.096,-190.112"/>
<polygon fill="black" stroke="black" points="639.582,-190.437 637.24,-180.104 632.627,-189.642 639.582,-190.437"/>
</g>
<!-- 33 -->
<g id="node34" class="node"><title>33</title>
<ellipse fill="cyan" stroke="black" cx="514.195" cy="-306" rx="51.7337" ry="18"/>
<text text-anchor="middle" x="514.195" y="-301.8" font-family="Times,serif" font-size="14.00">33:(1,3,3,1)</text>
</g>
<!-- 33&#45;&gt;9 -->
<g id="edge64" class="edge"><title>33&#45;&gt;9</title>
<path fill="none" stroke="black" d="M514.195,-287.697C514.195,-279.983 514.195,-270.712 514.195,-262.112"/>
<polygon fill="black" stroke="black" points="517.695,-262.104 514.195,-252.104 510.695,-262.104 517.695,-262.104"/>
</g>
<!-- 33&#45;&gt;30 -->
<g id="edge65" class="edge"><title>33&#45;&gt;30</title>
<path fill="none" stroke="black" d="M476.637,-293.519C437.201,-281.465 375.102,-262.482 332.384,-249.424"/>
<polygon fill="black" stroke="black" points="333.36,-246.063 322.774,-246.487 331.314,-252.757 333.36,-246.063"/>
</g>
<!-- 33&#45;&gt;32 -->
<g id="edge63" class="edge"><title>33&#45;&gt;32</title>
<path fill="none" stroke="black" d="M539.008,-290.155C556.071,-279.946 578.934,-266.267 597.623,-255.086"/>
<polygon fill="black" stroke="black" points="599.634,-257.962 606.418,-249.824 596.04,-251.955 599.634,-257.962"/>
</g>
<!-- 34 -->
<g id="node35" class="node"><title>34</title>
<ellipse fill="cyan" stroke="black" cx="393.195" cy="-378" rx="51.7337" ry="18"/>
<text text-anchor="middle" x="393.195" y="-373.8" font-family="Times,serif" font-size="14.00">34:(1,3,3,1)</text>
</g>
<!-- 34&#45;&gt;10 -->
<g id="edge67" class="edge"><title>34&#45;&gt;10</title>
<path fill="none" stroke="black" d="M393.195,-359.697C393.195,-351.983 393.195,-342.712 393.195,-334.112"/>
<polygon fill="black" stroke="black" points="396.695,-334.104 393.195,-324.104 389.695,-334.104 396.695,-334.104"/>
</g>
<!-- 34&#45;&gt;31 -->
<g id="edge68" class="edge"><title>34&#45;&gt;31</title>
<path fill="none" stroke="black" d="M360.689,-363.998C332.415,-352.688 291.258,-336.225 260.437,-323.897"/>
<polygon fill="black" stroke="black" points="261.408,-320.516 250.823,-320.051 258.808,-327.015 261.408,-320.516"/>
</g>
<!-- 34&#45;&gt;33 -->
<g id="edge66" class="edge"><title>34&#45;&gt;33</title>
<path fill="none" stroke="black" d="M418.856,-362.155C436.583,-351.9 460.363,-338.143 479.738,-326.934"/>
<polygon fill="black" stroke="black" points="481.668,-329.861 488.571,-321.824 478.162,-323.802 481.668,-329.861"/>
</g>
</g>
</svg>
