<?xml version="1.0" encoding="UTF-8" standalone="no"?>
<!DOCTYPE svg PUBLIC "-//W3C//DTD SVG 1.1//EN"
 "http://www.w3.org/Graphics/SVG/1.1/DTD/svg11.dtd">
<!-- Generated by graphviz version 2.38.0 (20140413.2041)
 -->
<!-- Title: %3 Pages: 1 -->
<svg width="854pt" height="404pt"
 viewBox="0.00 0.00 854.00 404.00" xmlns="http://www.w3.org/2000/svg" xmlns:xlink="http://www.w3.org/1999/xlink">
<g id="graph0" class="graph" transform="scale(1 1) rotate(0) translate(4 400)">
<title>%3</title>
<polygon fill="white" stroke="none" points="-4,4 -4,-400 850,-400 850,4 -4,4"/>
<!-- 0 -->
<g id="node1" class="node"><title>0</title>
<ellipse fill="cyan" stroke="black" cx="387" cy="-18" rx="40.6248" ry="18"/>
<text text-anchor="middle" x="387" y="-13.8" font-family="Times,serif" font-size="14.00">0:(1,1,0)</text>
</g>
<!-- 1 -->
<g id="node2" class="node"><title>1</title>
<ellipse fill="cyan" stroke="black" cx="344" cy="-90" rx="40.6248" ry="18"/>
<text text-anchor="middle" x="344" y="-85.8" font-family="Times,serif" font-size="14.00">1:(0,0,1)</text>
</g>
<!-- 1&#45;&gt;0 -->
<g id="edge1" class="edge"><title>1&#45;&gt;0</title>
<path fill="none" stroke="black" d="M354.19,-72.411C359.385,-63.9549 365.811,-53.4944 371.595,-44.0783"/>
<polygon fill="black" stroke="black" points="374.631,-45.8227 376.883,-35.4699 368.666,-42.1587 374.631,-45.8227"/>
</g>
<!-- 2 -->
<g id="node3" class="node"><title>2</title>
<ellipse fill="none" stroke="black" cx="430" cy="-90" rx="27" ry="18"/>
<text text-anchor="middle" x="430" y="-85.8" font-family="Times,serif" font-size="14.00">2</text>
</g>
<!-- 2&#45;&gt;0 -->
<g id="edge2" class="edge"><title>2&#45;&gt;0</title>
<path fill="none" stroke="black" d="M420.243,-73.1159C415.06,-64.679 408.564,-54.1044 402.693,-44.5465"/>
<polygon fill="black" stroke="black" points="405.535,-42.4861 397.318,-35.7973 399.57,-46.1501 405.535,-42.4861"/>
</g>
<!-- 3 -->
<g id="node4" class="node"><title>3</title>
<ellipse fill="none" stroke="black" cx="459" cy="-162" rx="27" ry="18"/>
<text text-anchor="middle" x="459" y="-157.8" font-family="Times,serif" font-size="14.00">3</text>
</g>
<!-- 3&#45;&gt;1 -->
<g id="edge3" class="edge"><title>3&#45;&gt;1</title>
<path fill="none" stroke="black" d="M439.752,-149.284C422.262,-138.638 396.132,-122.733 375.585,-110.226"/>
<polygon fill="black" stroke="black" points="377.238,-107.134 366.876,-104.925 373.598,-113.114 377.238,-107.134"/>
</g>
<!-- 3&#45;&gt;2 -->
<g id="edge4" class="edge"><title>3&#45;&gt;2</title>
<path fill="none" stroke="black" d="M452.127,-144.411C448.733,-136.216 444.558,-126.14 440.753,-116.955"/>
<polygon fill="black" stroke="black" points="443.884,-115.369 436.823,-107.47 437.417,-118.048 443.884,-115.369"/>
</g>
<!-- 4 -->
<g id="node5" class="node"><title>4</title>
<ellipse fill="none" stroke="black" cx="27" cy="-162" rx="27" ry="18"/>
<text text-anchor="middle" x="27" y="-157.8" font-family="Times,serif" font-size="14.00">4</text>
</g>
<!-- 4&#45;&gt;1 -->
<g id="edge5" class="edge"><title>4&#45;&gt;1</title>
<path fill="none" stroke="black" d="M47.573,-150.186C52.5269,-147.892 57.8721,-145.664 63,-144 142.128,-118.321 238.064,-103.551 294.901,-96.411"/>
<polygon fill="black" stroke="black" points="295.547,-99.8581 305.046,-95.1657 294.694,-92.9102 295.547,-99.8581"/>
</g>
<!-- 4&#45;&gt;2 -->
<g id="edge6" class="edge"><title>4&#45;&gt;2</title>
<path fill="none" stroke="black" d="M47.4844,-149.894C52.442,-147.612 57.811,-145.463 63,-144 205.428,-103.851 251.572,-148.149 394,-108 395.946,-107.451 397.917,-106.806 399.882,-106.094"/>
<polygon fill="black" stroke="black" points="401.615,-109.165 409.516,-102.106 398.937,-102.697 401.615,-109.165"/>
</g>
<!-- 5 -->
<g id="node6" class="node"><title>5</title>
<ellipse fill="none" stroke="black" cx="27" cy="-234" rx="27" ry="18"/>
<text text-anchor="middle" x="27" y="-229.8" font-family="Times,serif" font-size="14.00">5</text>
</g>
<!-- 5&#45;&gt;4 -->
<g id="edge7" class="edge"><title>5&#45;&gt;4</title>
<path fill="none" stroke="black" d="M27,-215.697C27,-207.983 27,-198.712 27,-190.112"/>
<polygon fill="black" stroke="black" points="30.5001,-190.104 27,-180.104 23.5001,-190.104 30.5001,-190.104"/>
</g>
<!-- 6 -->
<g id="node7" class="node"><title>6</title>
<ellipse fill="none" stroke="black" cx="243" cy="-162" rx="27" ry="18"/>
<text text-anchor="middle" x="243" y="-157.8" font-family="Times,serif" font-size="14.00">6</text>
</g>
<!-- 6&#45;&gt;2 -->
<g id="edge8" class="edge"><title>6&#45;&gt;2</title>
<path fill="none" stroke="black" d="M264.108,-150.439C268.946,-148.185 274.107,-145.911 279,-144 328.888,-124.519 344.112,-127.481 394,-108 395.835,-107.283 397.707,-106.516 399.587,-105.717"/>
<polygon fill="black" stroke="black" points="401.189,-108.835 408.892,-101.561 398.334,-102.443 401.189,-108.835"/>
</g>
<!-- 7 -->
<g id="node8" class="node"><title>7</title>
<ellipse fill="none" stroke="black" cx="315" cy="-162" rx="27" ry="18"/>
<text text-anchor="middle" x="315" y="-157.8" font-family="Times,serif" font-size="14.00">7</text>
</g>
<!-- 7&#45;&gt;1 -->
<g id="edge9" class="edge"><title>7&#45;&gt;1</title>
<path fill="none" stroke="black" d="M321.873,-144.411C325.218,-136.335 329.321,-126.431 333.082,-117.355"/>
<polygon fill="black" stroke="black" points="336.381,-118.534 336.975,-107.956 329.914,-115.855 336.381,-118.534"/>
</g>
<!-- 7&#45;&gt;2 -->
<g id="edge10" class="edge"><title>7&#45;&gt;2</title>
<path fill="none" stroke="black" d="M334.248,-149.284C352.74,-138.028 380.892,-120.892 401.891,-108.11"/>
<polygon fill="black" stroke="black" points="403.967,-110.944 410.689,-102.755 400.327,-104.964 403.967,-110.944"/>
</g>
<!-- 8 -->
<g id="node9" class="node"><title>8</title>
<ellipse fill="none" stroke="black" cx="243" cy="-234" rx="27" ry="18"/>
<text text-anchor="middle" x="243" y="-229.8" font-family="Times,serif" font-size="14.00">8</text>
</g>
<!-- 8&#45;&gt;4 -->
<g id="edge11" class="edge"><title>8&#45;&gt;4</title>
<path fill="none" stroke="black" d="M221.972,-222.226C217.129,-219.983 211.947,-217.767 207,-216 144.875,-193.809 125.125,-202.191 63,-180 61.1449,-179.337 59.2567,-178.612 57.3657,-177.845"/>
<polygon fill="black" stroke="black" points="58.5939,-174.562 48.0284,-173.774 55.7963,-180.979 58.5939,-174.562"/>
</g>
<!-- 8&#45;&gt;6 -->
<g id="edge12" class="edge"><title>8&#45;&gt;6</title>
<path fill="none" stroke="black" d="M243,-215.697C243,-207.983 243,-198.712 243,-190.112"/>
<polygon fill="black" stroke="black" points="246.5,-190.104 243,-180.104 239.5,-190.104 246.5,-190.104"/>
</g>
<!-- 8&#45;&gt;7 -->
<g id="edge13" class="edge"><title>8&#45;&gt;7</title>
<path fill="none" stroke="black" d="M257.57,-218.834C267.75,-208.938 281.524,-195.546 293.031,-184.359"/>
<polygon fill="black" stroke="black" points="295.474,-186.865 300.204,-177.385 290.595,-181.846 295.474,-186.865"/>
</g>
<!-- 9 -->
<g id="node10" class="node"><title>9</title>
<ellipse fill="none" stroke="black" cx="315" cy="-234" rx="27" ry="18"/>
<text text-anchor="middle" x="315" y="-229.8" font-family="Times,serif" font-size="14.00">9</text>
</g>
<!-- 9&#45;&gt;7 -->
<g id="edge14" class="edge"><title>9&#45;&gt;7</title>
<path fill="none" stroke="black" d="M315,-215.697C315,-207.983 315,-198.712 315,-190.112"/>
<polygon fill="black" stroke="black" points="318.5,-190.104 315,-180.104 311.5,-190.104 318.5,-190.104"/>
</g>
<!-- 10 -->
<g id="node11" class="node"><title>10</title>
<ellipse fill="none" stroke="black" cx="243" cy="-306" rx="27" ry="18"/>
<text text-anchor="middle" x="243" y="-301.8" font-family="Times,serif" font-size="14.00">10</text>
</g>
<!-- 10&#45;&gt;5 -->
<g id="edge17" class="edge"><title>10&#45;&gt;5</title>
<path fill="none" stroke="black" d="M217.848,-298.909C182.676,-290.097 117.04,-272.573 63,-252 61.159,-251.299 59.2818,-250.544 57.3992,-249.754"/>
<polygon fill="black" stroke="black" points="58.6444,-246.478 48.0842,-245.623 55.8063,-252.877 58.6444,-246.478"/>
</g>
<!-- 10&#45;&gt;8 -->
<g id="edge15" class="edge"><title>10&#45;&gt;8</title>
<path fill="none" stroke="black" d="M243,-287.697C243,-279.983 243,-270.712 243,-262.112"/>
<polygon fill="black" stroke="black" points="246.5,-262.104 243,-252.104 239.5,-262.104 246.5,-262.104"/>
</g>
<!-- 10&#45;&gt;9 -->
<g id="edge16" class="edge"><title>10&#45;&gt;9</title>
<path fill="none" stroke="black" d="M257.57,-290.834C267.75,-280.938 281.524,-267.546 293.031,-256.359"/>
<polygon fill="black" stroke="black" points="295.474,-258.865 300.204,-249.385 290.595,-253.846 295.474,-258.865"/>
</g>
<!-- 11 -->
<g id="node12" class="node"><title>11</title>
<ellipse fill="none" stroke="black" cx="747" cy="-162" rx="27" ry="18"/>
<text text-anchor="middle" x="747" y="-157.8" font-family="Times,serif" font-size="14.00">11</text>
</g>
<!-- 11&#45;&gt;1 -->
<g id="edge18" class="edge"><title>11&#45;&gt;1</title>
<path fill="none" stroke="black" d="M726.511,-149.912C721.553,-147.629 716.186,-145.475 711,-144 574.616,-105.206 532.364,-139 394,-108 390.586,-107.235 387.079,-106.321 383.583,-105.318"/>
<polygon fill="black" stroke="black" points="384.43,-101.917 373.843,-102.311 382.365,-108.605 384.43,-101.917"/>
</g>
<!-- 11&#45;&gt;2 -->
<g id="edge19" class="edge"><title>11&#45;&gt;2</title>
<path fill="none" stroke="black" d="M726.427,-150.186C721.473,-147.892 716.128,-145.664 711,-144 625.782,-116.345 521.067,-101.342 466.695,-94.8963"/>
<polygon fill="black" stroke="black" points="466.848,-91.3908 456.512,-93.7201 466.044,-98.3446 466.848,-91.3908"/>
</g>
<!-- 12 -->
<g id="node13" class="node"><title>12</title>
<ellipse fill="none" stroke="black" cx="747" cy="-234" rx="27" ry="18"/>
<text text-anchor="middle" x="747" y="-229.8" font-family="Times,serif" font-size="14.00">12</text>
</g>
<!-- 12&#45;&gt;11 -->
<g id="edge20" class="edge"><title>12&#45;&gt;11</title>
<path fill="none" stroke="black" d="M747,-215.697C747,-207.983 747,-198.712 747,-190.112"/>
<polygon fill="black" stroke="black" points="750.5,-190.104 747,-180.104 743.5,-190.104 750.5,-190.104"/>
</g>
<!-- 13 -->
<g id="node14" class="node"><title>13</title>
<ellipse fill="none" stroke="black" cx="603" cy="-162" rx="27" ry="18"/>
<text text-anchor="middle" x="603" y="-157.8" font-family="Times,serif" font-size="14.00">13</text>
</g>
<!-- 13&#45;&gt;1 -->
<g id="edge21" class="edge"><title>13&#45;&gt;1</title>
<path fill="none" stroke="black" d="M582.404,-150.256C577.451,-147.959 572.112,-145.712 567,-144 492.53,-119.059 469.765,-128.679 394,-108 390.816,-107.131 387.538,-106.17 384.257,-105.16"/>
<polygon fill="black" stroke="black" points="385.081,-101.749 374.49,-102.028 382.943,-108.415 385.081,-101.749"/>
</g>
<!-- 13&#45;&gt;2 -->
<g id="edge22" class="edge"><title>13&#45;&gt;2</title>
<path fill="none" stroke="black" d="M581.795,-150.676C576.962,-148.41 571.828,-146.071 567,-144 531.931,-128.96 491.055,-113.395 463.141,-103.058"/>
<polygon fill="black" stroke="black" points="464.071,-99.6703 453.477,-99.496 461.65,-106.238 464.071,-99.6703"/>
</g>
<!-- 14 -->
<g id="node15" class="node"><title>14</title>
<ellipse fill="none" stroke="black" cx="603" cy="-234" rx="27" ry="18"/>
<text text-anchor="middle" x="603" y="-229.8" font-family="Times,serif" font-size="14.00">14</text>
</g>
<!-- 14&#45;&gt;13 -->
<g id="edge23" class="edge"><title>14&#45;&gt;13</title>
<path fill="none" stroke="black" d="M603,-215.697C603,-207.983 603,-198.712 603,-190.112"/>
<polygon fill="black" stroke="black" points="606.5,-190.104 603,-180.104 599.5,-190.104 606.5,-190.104"/>
</g>
<!-- 15 -->
<g id="node16" class="node"><title>15</title>
<ellipse fill="none" stroke="black" cx="819" cy="-162" rx="27" ry="18"/>
<text text-anchor="middle" x="819" y="-157.8" font-family="Times,serif" font-size="14.00">15</text>
</g>
<!-- 15&#45;&gt;2 -->
<g id="edge24" class="edge"><title>15&#45;&gt;2</title>
<path fill="none" stroke="black" d="M798.471,-150.047C793.515,-147.759 788.158,-145.568 783,-144 671.23,-110.024 532.663,-97.3473 467.366,-93.0245"/>
<polygon fill="black" stroke="black" points="467.36,-89.5173 457.159,-92.378 466.918,-96.5033 467.36,-89.5173"/>
</g>
<!-- 16 -->
<g id="node17" class="node"><title>16</title>
<ellipse fill="none" stroke="black" cx="819" cy="-234" rx="27" ry="18"/>
<text text-anchor="middle" x="819" y="-229.8" font-family="Times,serif" font-size="14.00">16</text>
</g>
<!-- 16&#45;&gt;11 -->
<g id="edge25" class="edge"><title>16&#45;&gt;11</title>
<path fill="none" stroke="black" d="M804.43,-218.834C794.25,-208.938 780.476,-195.546 768.969,-184.359"/>
<polygon fill="black" stroke="black" points="771.405,-181.846 761.796,-177.385 766.526,-186.865 771.405,-181.846"/>
</g>
<!-- 16&#45;&gt;13 -->
<g id="edge26" class="edge"><title>16&#45;&gt;13</title>
<path fill="none" stroke="black" d="M797.972,-222.226C793.129,-219.983 787.947,-217.767 783,-216 720.875,-193.809 701.125,-202.191 639,-180 637.145,-179.337 635.257,-178.612 633.366,-177.845"/>
<polygon fill="black" stroke="black" points="634.594,-174.562 624.028,-173.774 631.796,-180.979 634.594,-174.562"/>
</g>
<!-- 16&#45;&gt;15 -->
<g id="edge27" class="edge"><title>16&#45;&gt;15</title>
<path fill="none" stroke="black" d="M819,-215.697C819,-207.983 819,-198.712 819,-190.112"/>
<polygon fill="black" stroke="black" points="822.5,-190.104 819,-180.104 815.5,-190.104 822.5,-190.104"/>
</g>
<!-- 17 -->
<g id="node18" class="node"><title>17</title>
<ellipse fill="none" stroke="black" cx="747" cy="-306" rx="27" ry="18"/>
<text text-anchor="middle" x="747" y="-301.8" font-family="Times,serif" font-size="14.00">17</text>
</g>
<!-- 17&#45;&gt;12 -->
<g id="edge29" class="edge"><title>17&#45;&gt;12</title>
<path fill="none" stroke="black" d="M747,-287.697C747,-279.983 747,-270.712 747,-262.112"/>
<polygon fill="black" stroke="black" points="750.5,-262.104 747,-252.104 743.5,-262.104 750.5,-262.104"/>
</g>
<!-- 17&#45;&gt;14 -->
<g id="edge30" class="edge"><title>17&#45;&gt;14</title>
<path fill="none" stroke="black" d="M725.752,-294.671C701.398,-282.832 661.281,-263.331 633.572,-249.862"/>
<polygon fill="black" stroke="black" points="634.859,-246.595 624.335,-245.371 631.798,-252.891 634.859,-246.595"/>
</g>
<!-- 17&#45;&gt;16 -->
<g id="edge28" class="edge"><title>17&#45;&gt;16</title>
<path fill="none" stroke="black" d="M761.57,-290.834C771.75,-280.938 785.524,-267.546 797.031,-256.359"/>
<polygon fill="black" stroke="black" points="799.474,-258.865 804.204,-249.385 794.595,-253.846 799.474,-258.865"/>
</g>
<!-- 18 -->
<g id="node19" class="node"><title>18</title>
<ellipse fill="none" stroke="black" cx="675" cy="-162" rx="27" ry="18"/>
<text text-anchor="middle" x="675" y="-157.8" font-family="Times,serif" font-size="14.00">18</text>
</g>
<!-- 18&#45;&gt;2 -->
<g id="edge31" class="edge"><title>18&#45;&gt;2</title>
<path fill="none" stroke="black" d="M653.967,-150.238C649.125,-147.995 643.944,-145.775 639,-144 579.565,-122.656 507.701,-106.427 465.601,-97.8401"/>
<polygon fill="black" stroke="black" points="466.058,-94.3621 455.564,-95.8233 464.679,-101.225 466.058,-94.3621"/>
</g>
<!-- 19 -->
<g id="node20" class="node"><title>19</title>
<ellipse fill="none" stroke="black" cx="675" cy="-234" rx="27" ry="18"/>
<text text-anchor="middle" x="675" y="-229.8" font-family="Times,serif" font-size="14.00">19</text>
</g>
<!-- 19&#45;&gt;3 -->
<g id="edge32" class="edge"><title>19&#45;&gt;3</title>
<path fill="none" stroke="black" d="M653.972,-222.226C649.129,-219.983 643.947,-217.767 639,-216 576.875,-193.809 557.125,-202.191 495,-180 493.145,-179.337 491.257,-178.612 489.366,-177.845"/>
<polygon fill="black" stroke="black" points="490.594,-174.562 480.028,-173.774 487.796,-180.979 490.594,-174.562"/>
</g>
<!-- 19&#45;&gt;11 -->
<g id="edge34" class="edge"><title>19&#45;&gt;11</title>
<path fill="none" stroke="black" d="M689.57,-218.834C699.75,-208.938 713.524,-195.546 725.031,-184.359"/>
<polygon fill="black" stroke="black" points="727.474,-186.865 732.204,-177.385 722.595,-181.846 727.474,-186.865"/>
</g>
<!-- 19&#45;&gt;18 -->
<g id="edge33" class="edge"><title>19&#45;&gt;18</title>
<path fill="none" stroke="black" d="M675,-215.697C675,-207.983 675,-198.712 675,-190.112"/>
<polygon fill="black" stroke="black" points="678.5,-190.104 675,-180.104 671.5,-190.104 678.5,-190.104"/>
</g>
<!-- 20 -->
<g id="node21" class="node"><title>20</title>
<ellipse fill="none" stroke="black" cx="459" cy="-234" rx="27" ry="18"/>
<text text-anchor="middle" x="459" y="-229.8" font-family="Times,serif" font-size="14.00">20</text>
</g>
<!-- 20&#45;&gt;3 -->
<g id="edge35" class="edge"><title>20&#45;&gt;3</title>
<path fill="none" stroke="black" d="M459,-215.697C459,-207.983 459,-198.712 459,-190.112"/>
<polygon fill="black" stroke="black" points="462.5,-190.104 459,-180.104 455.5,-190.104 462.5,-190.104"/>
</g>
<!-- 21 -->
<g id="node22" class="node"><title>21</title>
<ellipse fill="none" stroke="black" cx="675" cy="-306" rx="27" ry="18"/>
<text text-anchor="middle" x="675" y="-301.8" font-family="Times,serif" font-size="14.00">21</text>
</g>
<!-- 21&#45;&gt;12 -->
<g id="edge38" class="edge"><title>21&#45;&gt;12</title>
<path fill="none" stroke="black" d="M689.57,-290.834C699.75,-280.938 713.524,-267.546 725.031,-256.359"/>
<polygon fill="black" stroke="black" points="727.474,-258.865 732.204,-249.385 722.595,-253.846 727.474,-258.865"/>
</g>
<!-- 21&#45;&gt;19 -->
<g id="edge37" class="edge"><title>21&#45;&gt;19</title>
<path fill="none" stroke="black" d="M675,-287.697C675,-279.983 675,-270.712 675,-262.112"/>
<polygon fill="black" stroke="black" points="678.5,-262.104 675,-252.104 671.5,-262.104 678.5,-262.104"/>
</g>
<!-- 21&#45;&gt;20 -->
<g id="edge36" class="edge"><title>21&#45;&gt;20</title>
<path fill="none" stroke="black" d="M649.848,-298.909C614.676,-290.097 549.04,-272.573 495,-252 493.159,-251.299 491.282,-250.544 489.399,-249.754"/>
<polygon fill="black" stroke="black" points="490.644,-246.478 480.084,-245.623 487.806,-252.877 490.644,-246.478"/>
</g>
<!-- 22 -->
<g id="node23" class="node"><title>22</title>
<ellipse fill="none" stroke="black" cx="531" cy="-162" rx="27" ry="18"/>
<text text-anchor="middle" x="531" y="-157.8" font-family="Times,serif" font-size="14.00">22</text>
</g>
<!-- 22&#45;&gt;2 -->
<g id="edge39" class="edge"><title>22&#45;&gt;2</title>
<path fill="none" stroke="black" d="M512.943,-148.485C497.242,-137.603 474.285,-121.692 456.501,-109.367"/>
<polygon fill="black" stroke="black" points="458.454,-106.462 448.241,-103.642 454.466,-112.215 458.454,-106.462"/>
</g>
<!-- 23 -->
<g id="node24" class="node"><title>23</title>
<ellipse fill="none" stroke="black" cx="531" cy="-234" rx="27" ry="18"/>
<text text-anchor="middle" x="531" y="-229.8" font-family="Times,serif" font-size="14.00">23</text>
</g>
<!-- 23&#45;&gt;3 -->
<g id="edge40" class="edge"><title>23&#45;&gt;3</title>
<path fill="none" stroke="black" d="M516.43,-218.834C506.25,-208.938 492.476,-195.546 480.969,-184.359"/>
<polygon fill="black" stroke="black" points="483.405,-181.846 473.796,-177.385 478.526,-186.865 483.405,-181.846"/>
</g>
<!-- 23&#45;&gt;13 -->
<g id="edge41" class="edge"><title>23&#45;&gt;13</title>
<path fill="none" stroke="black" d="M545.57,-218.834C555.75,-208.938 569.524,-195.546 581.031,-184.359"/>
<polygon fill="black" stroke="black" points="583.474,-186.865 588.204,-177.385 578.595,-181.846 583.474,-186.865"/>
</g>
<!-- 23&#45;&gt;22 -->
<g id="edge42" class="edge"><title>23&#45;&gt;22</title>
<path fill="none" stroke="black" d="M531,-215.697C531,-207.983 531,-198.712 531,-190.112"/>
<polygon fill="black" stroke="black" points="534.5,-190.104 531,-180.104 527.5,-190.104 534.5,-190.104"/>
</g>
<!-- 24 -->
<g id="node25" class="node"><title>24</title>
<ellipse fill="none" stroke="black" cx="567" cy="-306" rx="27" ry="18"/>
<text text-anchor="middle" x="567" y="-301.8" font-family="Times,serif" font-size="14.00">24</text>
</g>
<!-- 24&#45;&gt;14 -->
<g id="edge44" class="edge"><title>24&#45;&gt;14</title>
<path fill="none" stroke="black" d="M575.35,-288.765C579.712,-280.283 585.147,-269.714 590.041,-260.197"/>
<polygon fill="black" stroke="black" points="593.235,-261.641 594.696,-251.147 587.01,-258.439 593.235,-261.641"/>
</g>
<!-- 24&#45;&gt;20 -->
<g id="edge43" class="edge"><title>24&#45;&gt;20</title>
<path fill="none" stroke="black" d="M548.188,-292.807C530.998,-281.665 505.382,-265.062 486.007,-252.504"/>
<polygon fill="black" stroke="black" points="487.892,-249.555 477.597,-247.053 484.084,-255.429 487.892,-249.555"/>
</g>
<!-- 24&#45;&gt;23 -->
<g id="edge45" class="edge"><title>24&#45;&gt;23</title>
<path fill="none" stroke="black" d="M558.65,-288.765C554.288,-280.283 548.853,-269.714 543.959,-260.197"/>
<polygon fill="black" stroke="black" points="546.99,-258.439 539.304,-251.147 540.765,-261.641 546.99,-258.439"/>
</g>
<!-- 25 -->
<g id="node26" class="node"><title>25</title>
<ellipse fill="none" stroke="black" cx="675" cy="-378" rx="27" ry="18"/>
<text text-anchor="middle" x="675" y="-373.8" font-family="Times,serif" font-size="14.00">25</text>
</g>
<!-- 25&#45;&gt;17 -->
<g id="edge47" class="edge"><title>25&#45;&gt;17</title>
<path fill="none" stroke="black" d="M689.57,-362.834C699.75,-352.938 713.524,-339.546 725.031,-328.359"/>
<polygon fill="black" stroke="black" points="727.474,-330.865 732.204,-321.385 722.595,-325.846 727.474,-330.865"/>
</g>
<!-- 25&#45;&gt;21 -->
<g id="edge48" class="edge"><title>25&#45;&gt;21</title>
<path fill="none" stroke="black" d="M675,-359.697C675,-351.983 675,-342.712 675,-334.112"/>
<polygon fill="black" stroke="black" points="678.5,-334.104 675,-324.104 671.5,-334.104 678.5,-334.104"/>
</g>
<!-- 25&#45;&gt;24 -->
<g id="edge46" class="edge"><title>25&#45;&gt;24</title>
<path fill="none" stroke="black" d="M656.188,-364.807C638.998,-353.665 613.382,-337.062 594.007,-324.504"/>
<polygon fill="black" stroke="black" points="595.892,-321.555 585.597,-319.053 592.084,-327.429 595.892,-321.555"/>
</g>
<!-- 26 -->
<g id="node27" class="node"><title>26</title>
<ellipse fill="none" stroke="black" cx="99" cy="-162" rx="27" ry="18"/>
<text text-anchor="middle" x="99" y="-157.8" font-family="Times,serif" font-size="14.00">26</text>
</g>
<!-- 26&#45;&gt;2 -->
<g id="edge49" class="edge"><title>26&#45;&gt;2</title>
<path fill="none" stroke="black" d="M119.517,-150.006C124.473,-147.719 129.833,-145.54 135,-144 246.377,-110.807 282.623,-141.193 394,-108 395.937,-107.423 397.902,-106.755 399.863,-106.026"/>
<polygon fill="black" stroke="black" points="401.613,-109.087 409.483,-101.994 398.908,-102.631 401.613,-109.087"/>
</g>
<!-- 27 -->
<g id="node28" class="node"><title>27</title>
<ellipse fill="none" stroke="black" cx="171" cy="-162" rx="27" ry="18"/>
<text text-anchor="middle" x="171" y="-157.8" font-family="Times,serif" font-size="14.00">27</text>
</g>
<!-- 27&#45;&gt;1 -->
<g id="edge50" class="edge"><title>27&#45;&gt;1</title>
<path fill="none" stroke="black" d="M192.205,-150.676C197.038,-148.41 202.172,-146.071 207,-144 239.251,-130.168 276.413,-115.893 303.889,-105.648"/>
<polygon fill="black" stroke="black" points="305.388,-108.825 313.546,-102.064 302.953,-102.262 305.388,-108.825"/>
</g>
<!-- 27&#45;&gt;2 -->
<g id="edge51" class="edge"><title>27&#45;&gt;2</title>
<path fill="none" stroke="black" d="M191.578,-150.2C196.531,-147.906 201.875,-145.674 207,-144 287.455,-117.723 313.545,-134.277 394,-108 395.922,-107.372 397.874,-106.666 399.826,-105.908"/>
<polygon fill="black" stroke="black" points="401.607,-108.952 409.422,-101.8 398.852,-102.517 401.607,-108.952"/>
</g>
<!-- 28 -->
<g id="node29" class="node"><title>28</title>
<ellipse fill="none" stroke="black" cx="387" cy="-162" rx="27" ry="18"/>
<text text-anchor="middle" x="387" y="-157.8" font-family="Times,serif" font-size="14.00">28</text>
</g>
<!-- 28&#45;&gt;2 -->
<g id="edge52" class="edge"><title>28&#45;&gt;2</title>
<path fill="none" stroke="black" d="M396.757,-145.116C402.145,-136.345 408.952,-125.264 415.001,-115.416"/>
<polygon fill="black" stroke="black" points="418.029,-117.174 420.281,-106.821 412.065,-113.51 418.029,-117.174"/>
</g>
<!-- 29 -->
<g id="node30" class="node"><title>29</title>
<ellipse fill="none" stroke="black" cx="99" cy="-234" rx="27" ry="18"/>
<text text-anchor="middle" x="99" y="-229.8" font-family="Times,serif" font-size="14.00">29</text>
</g>
<!-- 29&#45;&gt;4 -->
<g id="edge55" class="edge"><title>29&#45;&gt;4</title>
<path fill="none" stroke="black" d="M84.4297,-218.834C74.2501,-208.938 60.4761,-195.546 48.9694,-184.359"/>
<polygon fill="black" stroke="black" points="51.4055,-181.846 41.7957,-177.385 46.5259,-186.865 51.4055,-181.846"/>
</g>
<!-- 29&#45;&gt;26 -->
<g id="edge53" class="edge"><title>29&#45;&gt;26</title>
<path fill="none" stroke="black" d="M99,-215.697C99,-207.983 99,-198.712 99,-190.112"/>
<polygon fill="black" stroke="black" points="102.5,-190.104 99,-180.104 95.5001,-190.104 102.5,-190.104"/>
</g>
<!-- 29&#45;&gt;27 -->
<g id="edge54" class="edge"><title>29&#45;&gt;27</title>
<path fill="none" stroke="black" d="M113.57,-218.834C123.75,-208.938 137.524,-195.546 149.031,-184.359"/>
<polygon fill="black" stroke="black" points="151.474,-186.865 156.204,-177.385 146.595,-181.846 151.474,-186.865"/>
</g>
<!-- 30 -->
<g id="node31" class="node"><title>30</title>
<ellipse fill="none" stroke="black" cx="171" cy="-234" rx="27" ry="18"/>
<text text-anchor="middle" x="171" y="-229.8" font-family="Times,serif" font-size="14.00">30</text>
</g>
<!-- 30&#45;&gt;27 -->
<g id="edge56" class="edge"><title>30&#45;&gt;27</title>
<path fill="none" stroke="black" d="M171,-215.697C171,-207.983 171,-198.712 171,-190.112"/>
<polygon fill="black" stroke="black" points="174.5,-190.104 171,-180.104 167.5,-190.104 174.5,-190.104"/>
</g>
<!-- 31 -->
<g id="node32" class="node"><title>31</title>
<ellipse fill="none" stroke="black" cx="135" cy="-306" rx="27" ry="18"/>
<text text-anchor="middle" x="135" y="-301.8" font-family="Times,serif" font-size="14.00">31</text>
</g>
<!-- 31&#45;&gt;5 -->
<g id="edge59" class="edge"><title>31&#45;&gt;5</title>
<path fill="none" stroke="black" d="M116.188,-292.807C98.9979,-281.665 73.3816,-265.062 54.0067,-252.504"/>
<polygon fill="black" stroke="black" points="55.8918,-249.555 45.5966,-247.053 52.0845,-255.429 55.8918,-249.555"/>
</g>
<!-- 31&#45;&gt;29 -->
<g id="edge57" class="edge"><title>31&#45;&gt;29</title>
<path fill="none" stroke="black" d="M126.65,-288.765C122.288,-280.283 116.853,-269.714 111.959,-260.197"/>
<polygon fill="black" stroke="black" points="114.99,-258.439 107.304,-251.147 108.765,-261.641 114.99,-258.439"/>
</g>
<!-- 31&#45;&gt;30 -->
<g id="edge58" class="edge"><title>31&#45;&gt;30</title>
<path fill="none" stroke="black" d="M143.35,-288.765C147.712,-280.283 153.147,-269.714 158.041,-260.197"/>
<polygon fill="black" stroke="black" points="161.235,-261.641 162.696,-251.147 155.01,-258.439 161.235,-261.641"/>
</g>
<!-- 32 -->
<g id="node33" class="node"><title>32</title>
<ellipse fill="none" stroke="black" cx="387" cy="-234" rx="27" ry="18"/>
<text text-anchor="middle" x="387" y="-229.8" font-family="Times,serif" font-size="14.00">32</text>
</g>
<!-- 32&#45;&gt;7 -->
<g id="edge62" class="edge"><title>32&#45;&gt;7</title>
<path fill="none" stroke="black" d="M372.43,-218.834C362.25,-208.938 348.476,-195.546 336.969,-184.359"/>
<polygon fill="black" stroke="black" points="339.405,-181.846 329.796,-177.385 334.526,-186.865 339.405,-181.846"/>
</g>
<!-- 32&#45;&gt;27 -->
<g id="edge60" class="edge"><title>32&#45;&gt;27</title>
<path fill="none" stroke="black" d="M365.972,-222.226C361.129,-219.983 355.947,-217.767 351,-216 288.875,-193.809 269.125,-202.191 207,-180 205.145,-179.337 203.257,-178.612 201.366,-177.845"/>
<polygon fill="black" stroke="black" points="202.594,-174.562 192.028,-173.774 199.796,-180.979 202.594,-174.562"/>
</g>
<!-- 32&#45;&gt;28 -->
<g id="edge61" class="edge"><title>32&#45;&gt;28</title>
<path fill="none" stroke="black" d="M387,-215.697C387,-207.983 387,-198.712 387,-190.112"/>
<polygon fill="black" stroke="black" points="390.5,-190.104 387,-180.104 383.5,-190.104 390.5,-190.104"/>
</g>
<!-- 33 -->
<g id="node34" class="node"><title>33</title>
<ellipse fill="none" stroke="black" cx="315" cy="-306" rx="27" ry="18"/>
<text text-anchor="middle" x="315" y="-301.8" font-family="Times,serif" font-size="14.00">33</text>
</g>
<!-- 33&#45;&gt;9 -->
<g id="edge64" class="edge"><title>33&#45;&gt;9</title>
<path fill="none" stroke="black" d="M315,-287.697C315,-279.983 315,-270.712 315,-262.112"/>
<polygon fill="black" stroke="black" points="318.5,-262.104 315,-252.104 311.5,-262.104 318.5,-262.104"/>
</g>
<!-- 33&#45;&gt;30 -->
<g id="edge65" class="edge"><title>33&#45;&gt;30</title>
<path fill="none" stroke="black" d="M293.752,-294.671C269.398,-282.832 229.281,-263.331 201.572,-249.862"/>
<polygon fill="black" stroke="black" points="202.859,-246.595 192.335,-245.371 199.798,-252.891 202.859,-246.595"/>
</g>
<!-- 33&#45;&gt;32 -->
<g id="edge63" class="edge"><title>33&#45;&gt;32</title>
<path fill="none" stroke="black" d="M329.57,-290.834C339.75,-280.938 353.524,-267.546 365.031,-256.359"/>
<polygon fill="black" stroke="black" points="367.474,-258.865 372.204,-249.385 362.595,-253.846 367.474,-258.865"/>
</g>
<!-- 34 -->
<g id="node35" class="node"><title>34</title>
<ellipse fill="none" stroke="black" cx="243" cy="-378" rx="27" ry="18"/>
<text text-anchor="middle" x="243" y="-373.8" font-family="Times,serif" font-size="14.00">34</text>
</g>
<!-- 34&#45;&gt;10 -->
<g id="edge67" class="edge"><title>34&#45;&gt;10</title>
<path fill="none" stroke="black" d="M243,-359.697C243,-351.983 243,-342.712 243,-334.112"/>
<polygon fill="black" stroke="black" points="246.5,-334.104 243,-324.104 239.5,-334.104 246.5,-334.104"/>
</g>
<!-- 34&#45;&gt;31 -->
<g id="edge68" class="edge"><title>34&#45;&gt;31</title>
<path fill="none" stroke="black" d="M224.188,-364.807C206.998,-353.665 181.382,-337.062 162.007,-324.504"/>
<polygon fill="black" stroke="black" points="163.892,-321.555 153.597,-319.053 160.084,-327.429 163.892,-321.555"/>
</g>
<!-- 34&#45;&gt;33 -->
<g id="edge66" class="edge"><title>34&#45;&gt;33</title>
<path fill="none" stroke="black" d="M257.57,-362.834C267.75,-352.938 281.524,-339.546 293.031,-328.359"/>
<polygon fill="black" stroke="black" points="295.474,-330.865 300.204,-321.385 290.595,-325.846 295.474,-330.865"/>
</g>
</g>
</svg>
